<mxfile host="www.draw.io" modified="2020-03-03T16:48:32.029Z" agent="Mozilla/5.0 (Macintosh; Intel Mac OS X 10_15_3) AppleWebKit/537.36 (KHTML, like Gecko) Chrome/80.0.3987.122 Safari/537.36" etag="yxvboIhDrtUZKh9VJo9O" version="12.7.9" type="github">
  <diagram id="C5RBs43oDa-KdzZeNtuy" name="Page-1">
    <mxGraphModel dx="887" dy="528" grid="1" gridSize="10" guides="1" tooltips="1" connect="1" arrows="1" fold="1" page="1" pageScale="1" pageWidth="827" pageHeight="1169" math="0" shadow="0">
      <root>
        <mxCell id="WIyWlLk6GJQsqaUBKTNV-0" />
        <mxCell id="WIyWlLk6GJQsqaUBKTNV-1" parent="WIyWlLk6GJQsqaUBKTNV-0" />
        <mxCell id="WIyWlLk6GJQsqaUBKTNV-2" value="" style="rounded=0;html=1;jettySize=auto;orthogonalLoop=1;fontSize=11;endArrow=block;endFill=0;endSize=8;strokeWidth=1;shadow=0;labelBackgroundColor=none;edgeStyle=orthogonalEdgeStyle;" parent="WIyWlLk6GJQsqaUBKTNV-1" edge="1">
          <mxGeometry relative="1" as="geometry">
            <mxPoint x="220" y="120" as="sourcePoint" />
            <mxPoint x="220" y="200" as="targetPoint" />
          </mxGeometry>
        </mxCell>
        <mxCell id="fNBgP7wJLayAHlmzlizY-0" value="拿到试卷" style="ellipse;whiteSpace=wrap;html=1;" vertex="1" parent="WIyWlLk6GJQsqaUBKTNV-1">
          <mxGeometry x="160" y="40" width="120" height="80" as="geometry" />
        </mxCell>
        <mxCell id="fNBgP7wJLayAHlmzlizY-2" value="&lt;ul&gt;&lt;li&gt;e.g. “男儿有泪不轻弹” —— “轻”说明观点代表男性并不是不能流泪，而是在特殊（e.g. 巨大打击）情况才能&lt;/li&gt;&lt;li&gt;e.g. ”广交友，无深交“&amp;nbsp;&lt;/li&gt;&lt;ul&gt;&lt;li&gt;“广”可以使交际圈的广也可以是数量的广&lt;/li&gt;&lt;li&gt;“深”的意思？——可以是不离不弃、在关键时候帮忙 etc&lt;/li&gt;&lt;/ul&gt;&lt;li&gt;e.g. “增强旅游业的发展能使一个国家更加富有，而且能提高人们的生活质量。”&lt;/li&gt;&lt;ul&gt;&lt;li&gt;“生活质量”&lt;/li&gt;&lt;/ul&gt;&lt;/ul&gt;" style="text;html=1;strokeColor=none;fillColor=none;align=left;verticalAlign=middle;whiteSpace=wrap;rounded=0;" vertex="1" parent="WIyWlLk6GJQsqaUBKTNV-1">
          <mxGeometry x="290" y="220" width="490" height="20" as="geometry" />
        </mxCell>
        <mxCell id="fNBgP7wJLayAHlmzlizY-6" value="" style="edgeStyle=orthogonalEdgeStyle;rounded=0;orthogonalLoop=1;jettySize=auto;html=1;" edge="1" parent="WIyWlLk6GJQsqaUBKTNV-1" source="fNBgP7wJLayAHlmzlizY-3">
          <mxGeometry relative="1" as="geometry">
            <mxPoint x="220" y="320" as="targetPoint" />
          </mxGeometry>
        </mxCell>
        <mxCell id="fNBgP7wJLayAHlmzlizY-3" value="抓住关键词" style="rounded=0;whiteSpace=wrap;html=1;" vertex="1" parent="WIyWlLk6GJQsqaUBKTNV-1">
          <mxGeometry x="160" y="200" width="120" height="40" as="geometry" />
        </mxCell>
        <mxCell id="fNBgP7wJLayAHlmzlizY-9" value="" style="edgeStyle=orthogonalEdgeStyle;rounded=0;orthogonalLoop=1;jettySize=auto;html=1;" edge="1" parent="WIyWlLk6GJQsqaUBKTNV-1" source="fNBgP7wJLayAHlmzlizY-7">
          <mxGeometry relative="1" as="geometry">
            <mxPoint x="374.9999999999999" y="355" as="targetPoint" />
          </mxGeometry>
        </mxCell>
        <mxCell id="fNBgP7wJLayAHlmzlizY-14" value="是" style="text;html=1;align=center;verticalAlign=middle;resizable=0;points=[];labelBackgroundColor=#ffffff;" vertex="1" connectable="0" parent="fNBgP7wJLayAHlmzlizY-9">
          <mxGeometry x="-0.175" relative="1" as="geometry">
            <mxPoint as="offset" />
          </mxGeometry>
        </mxCell>
        <mxCell id="fNBgP7wJLayAHlmzlizY-12" value="" style="edgeStyle=orthogonalEdgeStyle;rounded=0;orthogonalLoop=1;jettySize=auto;html=1;" edge="1" parent="WIyWlLk6GJQsqaUBKTNV-1" source="fNBgP7wJLayAHlmzlizY-7">
          <mxGeometry relative="1" as="geometry">
            <mxPoint x="220" y="470" as="targetPoint" />
          </mxGeometry>
        </mxCell>
        <mxCell id="fNBgP7wJLayAHlmzlizY-13" value="否" style="text;html=1;align=center;verticalAlign=middle;resizable=0;points=[];labelBackgroundColor=#ffffff;" vertex="1" connectable="0" parent="fNBgP7wJLayAHlmzlizY-12">
          <mxGeometry x="0.125" y="2" relative="1" as="geometry">
            <mxPoint as="offset" />
          </mxGeometry>
        </mxCell>
        <mxCell id="fNBgP7wJLayAHlmzlizY-7" value="题目观点是否是有逻辑联系的2个半句组成" style="rhombus;whiteSpace=wrap;html=1;align=center;verticalAlign=middle;" vertex="1" parent="WIyWlLk6GJQsqaUBKTNV-1">
          <mxGeometry x="145" y="320" width="150" height="70" as="geometry" />
        </mxCell>
        <mxCell id="fNBgP7wJLayAHlmzlizY-22" value="" style="edgeStyle=orthogonalEdgeStyle;rounded=0;orthogonalLoop=1;jettySize=auto;html=1;fontSize=24;entryX=1;entryY=0.5;entryDx=0;entryDy=0;" edge="1" parent="WIyWlLk6GJQsqaUBKTNV-1" source="fNBgP7wJLayAHlmzlizY-15">
          <mxGeometry relative="1" as="geometry">
            <mxPoint x="295" y="505" as="targetPoint" />
            <Array as="points">
              <mxPoint x="440" y="505" />
            </Array>
          </mxGeometry>
        </mxCell>
        <mxCell id="fNBgP7wJLayAHlmzlizY-15" value="厘清句子和句子的逻辑关系" style="rounded=0;whiteSpace=wrap;html=1;align=center;" vertex="1" parent="WIyWlLk6GJQsqaUBKTNV-1">
          <mxGeometry x="380" y="325" width="120" height="60" as="geometry" />
        </mxCell>
        <mxCell id="fNBgP7wJLayAHlmzlizY-16" value="" style="strokeWidth=2;html=1;shape=mxgraph.flowchart.annotation_2;align=left;labelPosition=right;pointerEvents=1;" vertex="1" parent="WIyWlLk6GJQsqaUBKTNV-1">
          <mxGeometry x="70" y="200" width="50" height="190" as="geometry" />
        </mxCell>
        <mxCell id="fNBgP7wJLayAHlmzlizY-19" value="审题" style="text;html=1;strokeColor=none;fillColor=none;align=center;verticalAlign=middle;whiteSpace=wrap;rounded=0;fontStyle=1;fontSize=24;" vertex="1" parent="WIyWlLk6GJQsqaUBKTNV-1">
          <mxGeometry x="20" y="285" width="40" height="20" as="geometry" />
        </mxCell>
        <mxCell id="fNBgP7wJLayAHlmzlizY-23" value="" style="rounded=0;whiteSpace=wrap;html=1;fontSize=24;align=center;" vertex="1" parent="WIyWlLk6GJQsqaUBKTNV-1">
          <mxGeometry x="160" y="480" width="120" height="60" as="geometry" />
        </mxCell>
      </root>
    </mxGraphModel>
  </diagram>
</mxfile>
